<?xml version="1.0" standalone="no"?>
<!DOCTYPE svg PUBLIC "-//W3C//DTD SVG 20010904//EN"
 "http://www.w3.org/TR/2001/REC-SVG-20010904/DTD/svg10.dtd">
<svg version="1.0" xmlns="http://www.w3.org/2000/svg"
 width="400.000000pt" height="161.000000pt" viewBox="0 0 400.000000 161.000000"
 preserveAspectRatio="xMidYMid meet">

<g transform="translate(0.000000,161.000000) scale(0.100000,-0.100000)"
fill="#000000" stroke="none">
<path d="M1890 1350 l0 -240 55 0 c60 0 109 19 119 45 3 9 6 48 6 86 0 62 -3
73 -26 94 l-26 24 21 22 c17 18 21 36 21 87 0 35 -5 72 -10 82 -12 22 -67 40
-122 40 l-38 0 0 -240z m114 184 c10 -10 16 -33 16 -65 0 -40 -5 -55 -25 -75
-46 -46 -60 -31 -63 69 l-3 87 30 0 c16 0 37 -7 45 -16z m9 -225 c11 -14 17
-38 17 -69 0 -58 -23 -90 -65 -93 l-30 -2 -3 99 -3 99 33 -7 c18 -3 41 -16 51
-27z"/>
<path d="M2140 1351 c0 -234 1 -241 20 -241 19 0 20 7 20 110 0 61 3 110 8
110 4 0 28 -49 53 -108 37 -86 51 -108 68 -110 28 -4 26 3 -34 132 l-43 93 31
14 c40 18 57 51 57 112 0 53 -20 101 -46 111 -10 4 -44 9 -76 13 l-58 6 0
-242z m114 184 c30 -30 32 -107 4 -142 -6 -7 -26 -13 -44 -13 l-34 0 0 78 c0
43 3 82 7 85 12 12 51 7 67 -8z"/>
<path d="M2390 1350 c0 -233 1 -240 20 -240 19 0 20 7 20 240 0 233 -1 240
-20 240 -19 0 -20 -7 -20 -240z"/>
<path d="M2510 1351 l0 -241 50 0 c112 0 133 34 138 215 5 204 -18 250 -131
262 l-57 6 0 -242z m95 189 c44 -17 57 -66 53 -206 -3 -106 -6 -126 -24 -151
-14 -18 -32 -29 -52 -31 l-32 -3 0 200 c0 218 -2 212 55 191z"/>
<path d="M2805 1566 c-37 -37 -47 -95 -43 -245 4 -151 17 -193 66 -212 38 -15
91 0 115 33 15 20 21 48 25 122 l5 96 -57 0 c-49 0 -56 -2 -56 -20 0 -16 7
-20 36 -20 l37 0 -5 -70 c-8 -107 -54 -142 -102 -77 -19 26 -21 42 -21 170 0
117 3 148 18 175 14 25 24 32 48 32 25 0 33 -6 42 -30 9 -24 16 -29 32 -24 11
4 21 8 23 9 8 7 -30 65 -47 75 -35 18 -90 12 -116 -14z"/>
<path d="M3030 1350 l0 -240 75 0 c68 0 75 2 75 20 0 18 -7 20 -55 20 l-56 0
3 93 3 92 53 3 c44 3 52 6 52 23 0 16 -7 19 -55 19 l-56 0 3 83 3 82 53 3 c44
3 52 6 52 23 0 17 -7 19 -75 19 l-75 0 0 -240z"/>
<path d="M1922 1034 c-49 -34 -67 -116 -37 -174 8 -16 35 -43 59 -59 88 -61
111 -127 61 -176 -30 -30 -64 -32 -99 -4 l-26 20 0 -31 c0 -24 6 -33 26 -40
58 -22 123 -1 149 50 8 16 15 52 15 80 0 46 -3 53 -41 88 -111 100 -119 109
-119 141 0 38 38 81 72 81 13 0 34 -7 46 -16 21 -14 22 -14 22 10 0 15 -8 30
-19 36 -29 15 -83 12 -109 -6z"/>
<path d="M2189 1035 c-34 -18 -48 -52 -61 -148 -12 -90 1 -227 26 -275 35 -67
130 -68 170 -2 41 70 41 320 0 390 -29 48 -84 63 -135 35z m95 -58 c19 -26 21
-42 21 -172 0 -130 -2 -146 -21 -172 -27 -36 -57 -40 -83 -12 -48 52 -48 316
0 368 26 28 56 24 83 -12z"/>
<path d="M3240 1022 c-34 -35 -50 -103 -50 -217 0 -114 16 -182 50 -217 50
-49 120 -33 158 35 14 26 17 58 17 182 0 124 -3 156 -17 182 -38 68 -108 84
-158 35z m102 -29 c25 -29 38 -91 38 -188 0 -136 -25 -205 -75 -205 -49 0 -75
70 -75 205 0 90 11 144 34 180 19 29 56 33 78 8z"/>
<path d="M3801 1036 c-35 -19 -50 -54 -51 -115 0 -49 3 -56 38 -90 21 -20 54
-48 74 -64 92 -68 34 -202 -67 -154 l-35 17 0 -25 c0 -28 26 -45 70 -45 71 0
120 57 120 140 0 45 2 43 -124 158 -30 27 -36 40 -36 72 0 62 60 100 106 65
27 -20 34 -19 34 8 0 42 -78 61 -129 33z"/>
<path d="M2420 805 l0 -235 75 0 c60 0 75 3 75 15 0 12 -13 15 -55 15 l-55 0
0 220 c0 213 -1 220 -20 220 -19 0 -20 -7 -20 -235z"/>
<path d="M2610 835 c0 -258 6 -275 100 -275 86 0 98 40 99 308 1 163 0 172
-18 172 -18 0 -19 -11 -23 -197 -4 -220 -9 -243 -58 -243 -55 0 -60 22 -60
242 0 191 -1 198 -20 198 -19 0 -20 -7 -20 -205z"/>
<path d="M2850 1025 c0 -10 11 -15 35 -15 l35 0 0 -220 c0 -213 1 -220 20
-220 19 0 20 8 22 218 l3 217 33 3 c20 2 32 9 32 18 0 11 -18 14 -90 14 -73 0
-90 -3 -90 -15z"/>
<path d="M3080 805 c0 -228 1 -235 20 -235 19 0 20 7 20 235 0 228 -1 235 -20
235 -19 0 -20 -7 -20 -235z"/>
<path d="M3490 805 c0 -202 2 -235 15 -235 13 0 15 27 16 183 l1 182 61 -182
c49 -145 65 -183 79 -183 17 0 18 17 18 235 0 202 -2 235 -15 235 -13 0 -15
-27 -16 -182 l-1 -183 -61 183 c-49 144 -65 182 -79 182 -17 0 -18 -17 -18
-235z"/>
<path d="M1951 498 c-13 -7 -34 -26 -45 -41 -19 -25 -21 -45 -24 -171 -5 -208
16 -266 97 -266 22 0 47 3 56 6 28 11 44 59 51 153 l7 91 -57 0 c-42 0 -56 -4
-56 -14 0 -9 12 -16 33 -18 l32 -3 -2 -68 c-3 -84 -14 -107 -53 -107 -51 0
-64 35 -69 179 -4 139 7 193 44 217 29 19 62 5 71 -30 4 -17 11 -22 25 -19 25
7 24 36 -3 67 -27 31 -74 41 -107 24z"/>
<path d="M2150 260 c0 -233 1 -240 20 -240 19 0 20 7 20 110 0 61 4 110 8 110
4 0 29 -48 54 -107 37 -85 51 -109 68 -111 27 -4 25 3 -36 134 -24 53 -44 97
-44 98 0 2 13 6 29 9 36 7 50 31 58 95 7 61 -16 118 -52 132 -15 6 -49 10 -76
10 l-49 0 0 -240z m109 190 c44 -23 32 -144 -15 -156 -47 -12 -54 -1 -54 86 0
79 0 80 26 80 14 0 33 -4 43 -10z"/>
<path d="M2438 490 c-34 -20 -53 -98 -53 -220 0 -139 8 -180 41 -220 22 -25
33 -30 70 -30 85 0 114 64 114 247 0 175 -28 233 -112 233 -24 0 -51 -5 -60
-10z m89 -35 c32 -22 43 -75 43 -200 0 -87 -4 -119 -20 -152 -16 -37 -23 -43
-49 -43 -42 0 -61 32 -74 124 -16 110 2 232 38 263 31 27 34 28 62 8z"/>
<path d="M2682 279 c3 -220 3 -221 27 -240 38 -31 117 -23 145 14 19 26 21 44
24 238 4 204 4 209 -16 209 -19 0 -20 -7 -24 -197 -4 -225 -8 -243 -64 -243
-28 0 -36 5 -44 26 -6 14 -10 113 -10 220 0 189 -1 194 -21 194 -20 0 -20 -4
-17 -221z"/>
<path d="M2950 261 c0 -234 1 -241 20 -241 19 0 20 7 20 114 l0 114 45 6 c24
4 54 15 67 26 20 16 23 27 23 94 0 100 -16 118 -110 124 l-65 4 0 -241z m121
182 c8 -9 14 -39 14 -70 0 -61 -20 -86 -65 -81 -24 3 -25 6 -28 86 l-3 82 34
0 c20 0 40 -7 48 -17z"/>
</g>
</svg>
