<svg xmlns="http://www.w3.org/2000/svg" width="199.841" height="44.601" viewBox="0 0 199.841 44.601">
    <defs>
        <clipPath id="prefix__clip-path">
            <path id="prefix__Rectangle_1619" d="M0 0H199.841V44.601H0z" data-name="Rectangle 1619" transform="translate(170.769 359.534)" style="fill:none"/>
        </clipPath>
        <style>
            .prefix__cls-2{clip-path:url(#prefix__clip-path)}.prefix__cls-3{fill:#072547}
        </style>
    </defs>
    <g id="prefix__Artwork_74" data-name="Artwork 74" transform="translate(-170.769 -359.534)">
        <g id="prefix__Group_254" data-name="Group 254">
            <g id="prefix__Group_253" class="prefix__cls-2" data-name="Group 253">
                <path id="prefix__Path_544" d="M234.158 359.715l-7.169 11.224-7.1-11.224h-5.249l10.065 15.352v9.994h4.49v-10.1l10.067-15.243z" class="prefix__cls-3" data-name="Path 544"/>
                <path id="prefix__Path_545" d="M250.163 364.857L254.544 375h-8.726zm-1.991-5.323l-11.153 25.528h4.562l2.608-6.119h11.985l2.57 6.119h4.708L252.3 359.534z" class="prefix__cls-3" data-name="Path 545"/>
                <path id="prefix__Path_546" d="M285.5 359.715v17.525l-13.578-17.525H267.8v25.346h4.381v-18.033l13.977 18.033h3.729v-25.346z" class="prefix__cls-3" data-name="Path 546"/>
                <path id="prefix__Path_547" d="M294.592 359.715v4.127h8.039v21.219h4.49v-21.219h8.038v-4.127z" class="prefix__cls-3" data-name="Path 547"/>
                <g id="prefix__Group_252" data-name="Group 252">
                    <g id="prefix__Group_251" class="prefix__cls-2" data-name="Group 251">
                        <path id="prefix__Path_548" d="M336.124 385.061l-6.227-8.835h-5.576v8.835h-4.455v-25.346h11.3c5.829 0 9.414 3.077 9.414 8.038 0 4.2-2.5 6.735-6.047 7.713l6.844 9.6zM330.8 363.77h-6.481v8.509h6.517c3.187 0 5.214-1.665 5.214-4.273 0-2.788-1.955-4.236-5.25-4.236" class="prefix__cls-3" data-name="Path 548"/>
                        <path id="prefix__Path_549" d="M370.306 385.062H365.6l-2.571-6.12h-11.986l-2.607 6.12h-4.563l11.153-25.528h4.129zm-13.288-20.205L352.673 375h8.727z" class="prefix__cls-3" data-name="Path 549"/>
                        <path id="prefix__Path_550" d="M266.364 404.135a5.735 5.735 0 0 1-5.8-5.824 5.793 5.793 0 0 1 5.824-5.887 5.6 5.6 0 0 1 4.485 1.934l-1.594 1.721a3.778 3.778 0 0 0-2.912-1.4 3.374 3.374 0 0 0-3.231 3.592 3.421 3.421 0 0 0 3.358 3.635 3.955 3.955 0 0 0 2.913-1.4l1.551 1.53a5.677 5.677 0 0 1-4.591 2.1" class="prefix__cls-3" data-name="Path 550"/>
                        <path id="prefix__Path_551" d="M278.327 404.134a5.809 5.809 0 0 1-5.952-5.823 5.985 5.985 0 1 1 5.952 5.823m0-9.458a3.374 3.374 0 0 0-3.38 3.592 3.471 3.471 0 0 0 3.422 3.635 3.379 3.379 0 0 0 3.4-3.592 3.475 3.475 0 0 0-3.443-3.635" class="prefix__cls-3" data-name="Path 551"/>
                        <path id="prefix__Path_552" d="M300.088 392.423c2.444 0 3.932 1.551 3.932 4.293v7.164h-2.572v-6.38c0-1.786-.829-2.742-2.274-2.742-1.4 0-2.4.978-2.4 2.785v6.334H294.2v-6.4c0-1.743-.85-2.721-2.274-2.721s-2.4 1.063-2.4 2.806v6.313h-2.572v-11.218h2.572v1.7a4.022 4.022 0 0 1 3.422-1.934 3.528 3.528 0 0 1 3.337 1.977 4.581 4.581 0 0 1 3.805-1.977" class="prefix__cls-3" data-name="Path 552"/>
                        <path id="prefix__Path_553" d="M320.273 392.423c2.445 0 3.933 1.551 3.933 4.293v7.164h-2.572v-6.38c0-1.786-.83-2.742-2.275-2.742-1.4 0-2.4.978-2.4 2.785v6.334h-2.572v-6.4c0-1.743-.851-2.721-2.275-2.721s-2.4 1.063-2.4 2.806v6.313h-2.573v-11.218h2.573v1.7a4.02 4.02 0 0 1 3.421-1.934 3.526 3.526 0 0 1 3.337 1.977 4.582 4.582 0 0 1 3.805-1.977" class="prefix__cls-3" data-name="Path 553"/>
                        <path id="prefix__Path_554" d="M332.51 402.031a4.075 4.075 0 0 0 3.04-1.34l1.509 1.34a5.676 5.676 0 0 1-4.591 2.1 5.863 5.863 0 0 1-.276-11.712c3.57 0 5.377 2.806 5.377 6.058 0 .234-.021.446-.042.7h-8.247a3.147 3.147 0 0 0 3.23 2.848m2.509-4.549c-.171-1.658-1.147-2.955-2.849-2.955a3.039 3.039 0 0 0-2.912 2.955z" class="prefix__cls-3" data-name="Path 554"/>
                        <path id="prefix__Path_555" d="M342.73 403.88h-2.572v-11.223h2.572v2.53a3.979 3.979 0 0 1 3.975-2.743v2.721h-.15c-2.253 0-3.825 1.467-3.825 4.443z" class="prefix__cls-3" data-name="Path 555"/>
                        <path id="prefix__Path_556" d="M353.738 404.135a5.734 5.734 0 0 1-5.8-5.824 5.792 5.792 0 0 1 5.824-5.887 5.605 5.605 0 0 1 4.485 1.934l-1.594 1.721a3.778 3.778 0 0 0-2.912-1.4 3.374 3.374 0 0 0-3.231 3.592 3.421 3.421 0 0 0 3.358 3.635 3.955 3.955 0 0 0 2.912-1.4l1.552 1.53a5.679 5.679 0 0 1-4.591 2.1" class="prefix__cls-3" data-name="Path 556"/>
                        <path id="prefix__Path_557" d="M365.552 402.031a4.075 4.075 0 0 0 3.04-1.34l1.509 1.34a5.678 5.678 0 0 1-4.591 2.1 5.863 5.863 0 0 1-.277-11.712c3.571 0 5.378 2.806 5.378 6.058 0 .234-.021.446-.042.7h-8.248a3.149 3.149 0 0 0 3.231 2.848m2.509-4.549c-.171-1.658-1.148-2.955-2.849-2.955a3.038 3.038 0 0 0-2.912 2.955z" class="prefix__cls-3" data-name="Path 557"/>
                        <path id="prefix__Path_558" d="M190.505 395.495l-6.348-6.879-2.684 2.477.416-10.321 10.321.413-2.684 2.478 7.945 8.611c7.073 7.665 11.53 4.707 13.947 1.189a21.986 21.986 0 0 0-27.98-31.584c3.66.4 7.229 3.341 10.831 6.942l6.618 6.619 2.583-2.583v10.33h-10.33l2.583-2.584-8.285-8.285c-10.365-10.365-14.73.021-15.8 3.327a21.991 21.991 0 0 0 28.224 26.959c-3.209-.959-6.282-3.774-9.36-7.11" data-name="Path 558" style="fill:#f7b112"/>
                    </g>
                </g>
            </g>
        </g>
    </g>
</svg>
